999
"DXF R12 Output" (www.mydxf.blogspot.com)
 0 
SECTION
 2 
HEADER
 9 
$ACADVER
 1 
AC1009
 9 
$EXTMIN
 10 
 0 
 20 
 0 
 9 
$EXTMAX
 10 
 8.5 
 20 
 11 
 0 
ENDSEC
 0 
SECTION
 2 
ENTITIES
0
LINE
8
Layer 1
10
5.185170
20
73.238600
11
4.911767
21
73.446882
0
LINE
8
Layer 1
10
4.911767
20
73.446882
11
4.836143
21
73.668672
0
LINE
8
Layer 1
10
4.836143
20
73.668672
11
4.689949
21
74.007460
0
LINE
8
Layer 1
10
4.689949
20
74.007460
11
4.463789
21
74.166464
0
LINE
8
Layer 1
10
4.463789
20
74.166464
11
4.109904
21
73.937790
0
LINE
8
Layer 1
10
4.109904
20
73.937790
11
3.936667
21
73.726847
0
LINE
8
Layer 1
10
3.936667
20
73.726847
11
3.763430
21
73.545090
0
LINE
8
Layer 1
10
3.763430
20
73.545090
11
3.600660
21
73.545138
0
LINE
8
Layer 1
10
3.600660
20
73.545138
11
3.098237
21
73.759119
0
LINE
8
Layer 1
10
3.098237
20
73.759119
11
3.007395
21
74.227216
0
LINE
8
Layer 1
10
3.007395
20
74.227216
11
2.986527
21
74.668878
0
LINE
8
Layer 1
10
2.986527
20
74.668878
11
2.712486
21
74.859413
0
LINE
8
Layer 1
10
2.712486
20
74.859413
11
2.275337
21
74.657386
0
LINE
8
Layer 1
10
2.275337
20
74.657386
11
2.127405
21
74.596570
0
LINE
8
Layer 1
10
2.127405
20
74.596570
11
2.066900
21
74.572674
0
LINE
8
Layer 1
10
2.066900
20
74.572674
11
1.983268
21
74.548779
0
LINE
8
Layer 1
10
1.983268
20
74.548779
11
1.899636
21
74.572674
0
LINE
8
Layer 1
10
1.899636
20
74.572674
11
1.840415
21
74.596570
0
LINE
8
Layer 1
10
1.840415
20
74.596570
11
1.482562
21
74.964267
0
LINE
8
Layer 1
10
1.482562
20
74.964267
11
1.469300
21
75.208900
0
LINE
8
Layer 1
10
1.469300
20
75.208900
11
1.588160
21
75.456200
0
LINE
8
Layer 1
10
1.588160
20
75.456200
11
1.733996
21
75.768850
0
LINE
8
Layer 1
10
1.733996
20
75.768850
11
1.697380
21
75.975600
0
LINE
8
Layer 1
10
1.697380
20
75.975600
11
1.305320
21
76.139300
0
LINE
8
Layer 1
10
1.305320
20
76.139300
11
0.812483
21
76.115775
0
LINE
8
Layer 1
10
0.812483
20
76.115775
11
0.607253
21
76.250800
0
LINE
8
Layer 1
10
0.607253
20
76.250800
11
0.454001
21
76.698500
0
LINE
8
Layer 1
10
0.454001
20
76.698500
11
0.537356
21
76.982621
0
LINE
8
Layer 1
10
0.537356
20
76.982621
11
0.770138
21
77.175223
0
LINE
8
Layer 1
10
0.770138
20
77.175223
11
0.985469
21
77.394900
0
LINE
8
Layer 1
10
0.985469
20
77.394900
11
0.998872
21
77.688100
0
LINE
8
Layer 1
10
0.998872
20
77.688100
11
0.461421
21
77.965000
0
LINE
8
Layer 1
10
0.461421
20
77.965000
11
0.143369
21
78.278700
0
LINE
8
Layer 1
10
0.143369
20
78.278700
11
0.119474
21
78.336176
0
LINE
8
Layer 1
10
0.119474
20
78.336176
11
0.119474
21
78.599019
0
LINE
8
Layer 1
10
0.119474
20
78.599019
11
0.143369
21
78.658800
0
LINE
8
Layer 1
10
0.143369
20
78.658800
11
0.191090
21
78.784695
0
LINE
8
Layer 1
10
0.191090
20
78.784695
11
0.621265
21
79.007100
0
LINE
8
Layer 1
10
0.621265
20
79.007100
11
0.929099
21
79.157938
0
LINE
8
Layer 1
10
0.929099
20
79.157938
11
1.049620
21
79.369000
0
LINE
8
Layer 1
10
1.049620
20
79.369000
11
0.823226
21
79.710100
0
LINE
8
Layer 1
10
0.823226
20
79.710100
11
0.580969
21
79.910700
0
LINE
8
Layer 1
10
0.580969
20
79.910700
11
0.454001
21
80.027700
0
LINE
8
Layer 1
10
0.454001
20
80.027700
11
0.454001
21
80.233600
0
LINE
8
Layer 1
10
0.454001
20
80.233600
11
0.504183
21
80.534792
0
LINE
8
Layer 1
10
0.504183
20
80.534792
11
0.713259
21
80.772534
0
LINE
8
Layer 1
10
0.713259
20
80.772534
11
1.005398
21
80.824843
0
LINE
8
Layer 1
10
1.005398
20
80.824843
11
1.550095
21
80.831557
0
LINE
8
Layer 1
10
1.550095
20
80.831557
11
1.697379
21
80.959534
0
LINE
8
Layer 1
10
1.697379
20
80.959534
11
1.720426
21
81.203493
0
LINE
8
Layer 1
10
1.720426
20
81.203493
11
1.696531
21
81.250718
0
LINE
8
Layer 1
10
1.696531
20
81.250718
11
1.589004
21
81.465049
0
LINE
8
Layer 1
10
1.589004
20
81.465049
11
1.481480
21
81.692600
0
LINE
8
Layer 1
10
1.481480
20
81.692600
11
1.457585
21
81.753059
0
LINE
8
Layer 1
10
1.457585
20
81.753059
11
1.491720
21
81.985400
0
LINE
8
Layer 1
10
1.491720
20
81.985400
11
1.851500
21
82.337600
0
LINE
8
Layer 1
10
1.851500
20
82.337600
11
2.044350
21
82.365200
0
LINE
8
Layer 1
10
2.044350
20
82.365200
11
2.145564
21
82.338539
0
LINE
8
Layer 1
10
2.145564
20
82.338539
11
2.354921
21
82.231012
0
LINE
8
Layer 1
10
2.354921
20
82.231012
11
2.569252
21
82.123485
0
LINE
8
Layer 1
10
2.569252
20
82.123485
11
2.616477
21
82.099590
0
LINE
8
Layer 1
10
2.616477
20
82.099590
11
2.860435
21
82.122637
0
LINE
8
Layer 1
10
2.860435
20
82.122637
11
2.988410
21
82.269900
0
LINE
8
Layer 1
10
2.988410
20
82.269900
11
2.995130
21
82.814600
0
LINE
8
Layer 1
10
2.995130
20
82.814600
11
3.047436
21
83.106750
0
LINE
8
Layer 1
10
3.047436
20
83.106750
11
3.285180
21
83.315800
0
LINE
8
Layer 1
10
3.285180
20
83.315800
11
3.586370
21
83.366000
0
LINE
8
Layer 1
10
3.586370
20
83.366000
11
3.792340
21
83.366000
0
LINE
8
Layer 1
10
3.792340
20
83.366000
11
3.909306
21
83.239032
0
LINE
8
Layer 1
10
3.909306
20
83.239032
11
4.109904
21
82.996775
0
LINE
8
Layer 1
10
4.109904
20
82.996775
11
4.451046
21
82.770377
0
LINE
8
Layer 1
10
4.451046
20
82.770377
11
4.662045
21
82.890901
0
LINE
8
Layer 1
10
4.662045
20
82.890901
11
4.812908
21
83.198737
0
LINE
8
Layer 1
10
4.812908
20
83.198737
11
5.035336
21
83.628912
0
LINE
8
Layer 1
10
5.035336
20
83.628912
11
5.161231
21
83.676633
0
LINE
8
Layer 1
10
5.161231
20
83.676633
11
5.221012
21
83.700528
0
LINE
8
Layer 1
10
5.221012
20
83.700528
11
5.483855
21
83.700528
0
LINE
8
Layer 1
10
5.483855
20
83.700528
11
5.541331
21
83.676633
0
LINE
8
Layer 1
10
5.541331
20
83.676633
11
5.855022
21
83.358581
0
LINE
8
Layer 1
10
5.855022
20
83.358581
11
6.131889
21
82.821130
0
LINE
8
Layer 1
10
6.131889
20
82.821130
11
6.425134
21
82.834534
0
LINE
8
Layer 1
10
6.425134
20
82.834534
11
6.644763
21
83.049864
0
LINE
8
Layer 1
10
6.644763
20
83.049864
11
6.837365
21
83.282646
0
LINE
8
Layer 1
10
6.837365
20
83.282646
11
7.127046
21
83.366001
0
LINE
8
Layer 1
10
7.127046
20
83.366001
11
7.590972
21
83.193208
0
LINE
8
Layer 1
10
7.590972
20
83.193208
11
7.706044
21
82.998689
0
LINE
8
Layer 1
10
7.706044
20
82.998689
11
7.680728
21
82.514682
0
LINE
8
Layer 1
10
7.680728
20
82.514682
11
7.844431
21
82.122624
0
LINE
8
Layer 1
10
7.844431
20
82.122624
11
8.051139
21
82.086007
0
LINE
8
Layer 1
10
8.051139
20
82.086007
11
8.363754
21
82.231842
0
LINE
8
Layer 1
10
8.363754
20
82.231842
11
8.611128
21
82.350703
0
LINE
8
Layer 1
10
8.611128
20
82.350703
11
8.855695
21
82.337440
0
LINE
8
Layer 1
10
8.855695
20
82.337440
11
9.223392
21
81.979587
0
LINE
8
Layer 1
10
9.223392
20
81.979587
11
9.247288
21
81.920365
0
LINE
8
Layer 1
10
9.247288
20
81.920365
11
9.271184
21
81.836734
0
LINE
8
Layer 1
10
9.271184
20
81.836734
11
9.247288
21
81.753102
0
LINE
8
Layer 1
10
9.247288
20
81.753102
11
9.221645
21
81.685981
0
LINE
8
Layer 1
10
9.221645
20
81.685981
11
9.173558
21
81.561944
0
LINE
8
Layer 1
10
9.173558
20
81.561944
11
8.960942
21
81.103535
0
LINE
8
Layer 1
10
8.960942
20
81.103535
11
9.015411
21
80.964574
0
LINE
8
Layer 1
10
9.015411
20
80.964574
11
9.220564
21
80.804187
0
LINE
8
Layer 1
10
9.220564
20
80.804187
11
9.592740
21
80.812607
0
LINE
8
Layer 1
10
9.592740
20
80.812607
11
10.060837
21
80.721765
0
LINE
8
Layer 1
10
10.060837
20
80.721765
11
10.258303
21
80.376507
0
LINE
8
Layer 1
10
10.258303
20
80.376507
11
10.228918
21
80.029471
0
LINE
8
Layer 1
10
10.228918
20
80.029471
11
9.677393
21
79.702712
0
LINE
8
Layer 1
10
9.677393
20
79.702712
11
8.602123
21
79.669411
0
LINE
8
Layer 1
10
8.602123
20
79.669411
11
7.634384
21
79.660766
0
LINE
8
Layer 1
10
7.634384
20
79.660766
11
7.479068
21
79.725637
0
LINE
8
Layer 1
10
7.479068
20
79.725637
11
6.992348
21
80.069464
0
LINE
8
Layer 1
10
6.992348
20
80.069464
11
6.332118
21
80.528142
0
LINE
8
Layer 1
10
6.332118
20
80.528142
11
5.364379
21
80.720703
0
LINE
8
Layer 1
10
5.364379
20
80.720703
11
4.344689
21
80.515785
0
LINE
8
Layer 1
10
4.344689
20
80.515785
11
3.747838
21
80.103910
0
LINE
8
Layer 1
10
3.747838
20
80.103910
11
3.325509
21
79.512315
0
LINE
8
Layer 1
10
3.325509
20
79.512315
11
3.143320
21
79.038204
0
LINE
8
Layer 1
10
3.143320
20
79.038204
11
3.099294
21
78.455615
0
LINE
8
Layer 1
10
3.099294
20
78.455615
11
3.136964
21
77.905497
0
LINE
8
Layer 1
10
3.136964
20
77.905497
11
3.324210
21
77.428135
0
LINE
8
Layer 1
10
3.324210
20
77.428135
11
3.770415
21
76.818818
0
LINE
8
Layer 1
10
3.770415
20
76.818818
11
4.468323
21
76.357584
0
LINE
8
Layer 1
10
4.468323
20
76.357584
11
5.340483
21
76.209570
0
LINE
8
Layer 1
10
5.340483
20
76.209570
11
5.884555
21
76.234979
0
LINE
8
Layer 1
10
5.884555
20
76.234979
11
6.306717
21
76.391266
0
LINE
8
Layer 1
10
6.306717
20
76.391266
11
6.918103
21
76.797070
0
LINE
8
Layer 1
10
6.918103
20
76.797070
11
7.297599
21
77.306944
0
LINE
8
Layer 1
10
7.297599
20
77.306944
11
7.281097
21
77.729260
0
LINE
8
Layer 1
10
7.281097
20
77.729260
11
7.081869
21
77.874236
0
LINE
8
Layer 1
10
7.081869
20
77.874236
11
6.559116
21
77.962648
0
LINE
8
Layer 1
10
6.559116
20
77.962648
11
6.201336
21
78.114538
0
LINE
8
Layer 1
10
6.201336
20
78.114538
11
6.087458
21
78.467559
0
LINE
8
Layer 1
10
6.087458
20
78.467559
11
6.210318
21
78.823186
0
LINE
8
Layer 1
10
6.210318
20
78.823186
11
6.584853
21
78.962843
0
LINE
8
Layer 1
10
6.584853
20
78.962843
11
8.375118
21
78.981297
0
LINE
8
Layer 1
10
8.375118
20
78.981297
11
10.215000
21
78.981300
0
LINE
8
Layer 1
10
10.215000
20
78.981300
11
10.352530
21
78.913766
0
LINE
8
Layer 1
10
10.352530
20
78.913766
11
10.571885
21
78.656540
0
LINE
8
Layer 1
10
10.571885
20
78.656540
11
10.562422
21
78.255100
0
LINE
8
Layer 1
10
10.562422
20
78.255100
11
10.431432
21
78.050410
0
LINE
8
Layer 1
10
10.431432
20
78.050410
11
10.055772
21
77.907616
0
LINE
8
Layer 1
10
10.055772
20
77.907616
11
9.763667
21
77.750524
0
LINE
8
Layer 1
10
9.763667
20
77.750524
11
9.663202
21
77.595070
0
LINE
8
Layer 1
10
9.663202
20
77.595070
11
9.877924
21
77.227792
0
LINE
8
Layer 1
10
9.877924
20
77.227792
11
10.134793
21
77.007829
0
LINE
8
Layer 1
10
10.134793
20
77.007829
11
10.274738
21
76.874257
0
LINE
8
Layer 1
10
10.274738
20
76.874257
11
10.274800
21
76.717100
0
LINE
8
Layer 1
10
10.274800
20
76.717100
11
10.194272
21
76.371355
0
LINE
8
Layer 1
10
10.194272
20
76.371355
11
9.983478
21
76.147429
0
LINE
8
Layer 1
10
9.983478
20
76.147429
11
9.399586
21
76.139171
0
LINE
8
Layer 1
10
9.399586
20
76.139171
11
9.155062
21
76.106950
0
LINE
8
Layer 1
10
9.155062
20
76.106950
11
9.003446
21
75.946952
0
LINE
8
Layer 1
10
9.003446
20
75.946952
11
8.985579
21
75.738729
0
LINE
8
Layer 1
10
8.985579
20
75.738729
11
9.121204
21
75.462102
0
LINE
8
Layer 1
10
9.121204
20
75.462102
11
9.223429
21
75.242486
0
LINE
8
Layer 1
10
9.223429
20
75.242486
11
9.247324
21
75.182027
0
LINE
8
Layer 1
10
9.247324
20
75.182027
11
9.089213
21
74.763352
0
LINE
8
Layer 1
10
9.089213
20
74.763352
11
8.638007
21
74.572710
0
LINE
8
Layer 1
10
8.638007
20
74.572710
11
8.579870
21
74.596606
0
LINE
8
Layer 1
10
8.579870
20
74.596606
11
8.423595
21
74.662317
0
LINE
8
Layer 1
10
8.423595
20
74.662317
11
8.247348
21
74.764951
0
LINE
8
Layer 1
10
8.247348
20
74.764951
11
8.081306
21
74.834865
0
LINE
8
Layer 1
10
8.081306
20
74.834865
11
7.873083
21
74.816588
0
LINE
8
Layer 1
10
7.873083
20
74.816588
11
7.713085
21
74.664972
0
LINE
8
Layer 1
10
7.713085
20
74.664972
11
7.680864
21
74.420448
0
LINE
8
Layer 1
10
7.680864
20
74.420448
11
7.672606
21
73.836556
0
LINE
8
Layer 1
10
7.672606
20
73.836556
11
7.448679
21
73.625762
0
LINE
8
Layer 1
10
7.448679
20
73.625762
11
7.102935
21
73.545234
0
LINE
8
Layer 1
10
7.102935
20
73.545234
11
6.945740
21
73.545200
0
LINE
8
Layer 1
10
6.945740
20
73.545200
11
6.812160
21
73.685200
0
LINE
8
Layer 1
10
6.812160
20
73.685200
11
6.593310
21
73.942000
0
LINE
8
Layer 1
10
6.593310
20
73.942000
11
6.225510
21
74.156900
0
LINE
8
Layer 1
10
6.225510
20
74.156900
11
6.069467
21
74.056287
0
LINE
8
Layer 1
10
6.069467
20
74.056287
11
5.912375
21
73.764182
0
LINE
8
Layer 1
10
5.912375
20
73.764182
11
5.769581
21
73.388522
0
LINE
8
Layer 1
10
5.769581
20
73.388522
11
5.564891
21
73.257532
0
LINE
8
Layer 1
10
5.564891
20
73.257532
11
5.185165
21
73.238618
0
LINE
8
Layer 1
10
5.185165
20
73.238618
11
5.185170
21
73.238600
 0 
ENDSEC
 0 
EOF