999
"DXF R12 Output" (www.mydxf.blogspot.com)
 0 
SECTION
 2 
HEADER
 9 
$ACADVER
 1 
AC1009
 9 
$EXTMIN
 10 
 0 
 20 
 0 
 9 
$EXTMAX
 10 
 8.5 
 20 
 11 
 0 
ENDSEC
 0 
SECTION
 2 
ENTITIES
0
LINE
8
Image
10
19.778100
20
40.214200
11
19.188196
21
39.940043
0
LINE
8
Image
10
19.188196
20
39.940043
11
18.789033
21
39.524750
0
LINE
8
Image
10
18.789033
20
39.524750
11
18.318562
21
38.461575
0
LINE
8
Image
10
18.318562
20
38.461575
11
17.877961
21
37.406312
0
LINE
8
Image
10
17.877961
20
37.406312
11
17.516133
21
37.000910
0
LINE
8
Image
10
17.516133
20
37.000910
11
16.978500
21
36.740600
0
LINE
8
Image
10
16.978500
20
36.740600
11
16.371464
21
36.795898
0
LINE
8
Image
10
16.371464
20
36.795898
11
15.850462
21
37.183212
0
LINE
8
Image
10
15.850462
20
37.183212
11
15.048000
21
38.201600
0
LINE
8
Image
10
15.048000
20
38.201600
11
14.347684
21
38.749822
0
LINE
8
Image
10
14.347684
20
38.749822
11
13.494800
21
38.958800
0
LINE
8
Image
10
13.494800
20
38.958800
11
12.615441
21
38.829603
0
LINE
8
Image
10
12.615441
20
38.829603
11
11.835700
21
38.363300
0
LINE
8
Image
10
11.835700
20
38.363300
11
11.499019
21
37.903244
0
LINE
8
Image
10
11.499019
20
37.903244
11
11.363842
21
37.386977
0
LINE
8
Image
10
11.363842
20
37.386977
11
11.421663
21
36.272512
0
LINE
8
Image
10
11.421663
20
36.272512
11
11.456477
21
35.193317
0
LINE
8
Image
10
11.456477
20
35.193317
11
11.292542
21
34.721136
0
LINE
8
Image
10
11.292542
20
34.721136
11
10.915600
21
34.322800
0
LINE
8
Image
10
10.915600
20
34.322800
11
10.301780
21
34.106466
0
LINE
8
Image
10
10.301780
20
34.106466
11
9.710326
21
34.228250
0
LINE
8
Image
10
9.710326
20
34.228250
11
8.579550
21
34.854900
0
LINE
8
Image
10
8.579550
20
34.854900
11
7.812098
21
35.104214
0
LINE
8
Image
10
7.812098
20
35.104214
11
7.078098
21
35.063288
0
LINE
8
Image
10
7.078098
20
35.063288
11
6.412178
21
34.738842
0
LINE
8
Image
10
6.412178
20
34.738842
11
5.848970
21
34.137600
0
LINE
8
Image
10
5.848970
20
34.137600
11
5.584073
21
33.526084
0
LINE
8
Image
10
5.584073
20
33.526084
11
5.583696
21
32.943025
0
LINE
8
Image
10
5.583696
20
32.943025
11
6.032281
21
31.839575
0
LINE
8
Image
10
6.032281
20
31.839575
11
6.506278
21
30.781837
0
LINE
8
Image
10
6.506278
20
30.781837
11
6.537666
21
30.255920
0
LINE
8
Image
10
6.537666
20
30.255920
11
6.317240
21
29.724400
0
LINE
8
Image
10
6.317240
20
29.724400
11
5.840220
21
29.316894
0
LINE
8
Image
10
5.840220
20
29.316894
11
5.272152
21
29.198325
0
LINE
8
Image
10
5.272152
20
29.198325
11
4.064000
21
29.334500
0
LINE
8
Image
10
4.064000
20
29.334500
11
3.326054
21
29.321286
0
LINE
8
Image
10
3.326054
20
29.321286
11
2.671621
21
29.096262
0
LINE
8
Image
10
2.671621
20
29.096262
11
2.145553
21
28.655858
0
LINE
8
Image
10
2.145553
20
28.655858
11
1.792700
21
27.996500
0
LINE
8
Image
10
1.792700
20
27.996500
11
1.668401
21
27.324472
0
LINE
8
Image
10
1.668401
20
27.324472
11
1.734719
21
26.677250
0
LINE
8
Image
10
1.734719
20
26.677250
11
1.991452
21
26.088528
0
LINE
8
Image
10
1.991452
20
26.088528
11
2.438400
21
25.592000
0
LINE
8
Image
10
2.438400
20
25.592000
11
3.456765
21
24.789538
0
LINE
8
Image
10
3.456765
20
24.789538
11
3.844090
21
24.268536
0
LINE
8
Image
10
3.844090
20
24.268536
11
3.899400
21
23.661500
0
LINE
8
Image
10
3.899400
20
23.661500
11
3.632201
21
23.112366
0
LINE
8
Image
10
3.632201
20
23.112366
11
3.216457
21
22.746552
0
LINE
8
Image
10
3.216457
20
22.746552
11
2.139326
21
22.305613
0
LINE
8
Image
10
2.139326
20
22.305613
11
1.067989
21
21.820142
0
LINE
8
Image
10
1.067989
20
21.820142
11
0.659488
21
21.398664
0
LINE
8
Image
10
0.659488
20
21.398664
11
0.402428
21
20.771600
0
LINE
8
Image
10
0.402428
20
20.771600
11
0.425773
21
19.958801
0
LINE
8
Image
10
0.425773
20
19.958801
11
0.737990
21
19.185581
0
LINE
8
Image
10
0.737990
20
19.185581
11
1.354739
21
18.641431
0
LINE
8
Image
10
1.354739
20
18.641431
11
2.874002
21
18.152114
0
LINE
8
Image
10
2.874002
20
18.152114
11
3.548391
21
17.760926
0
LINE
8
Image
10
3.548391
20
17.760926
11
3.915919
21
17.068841
0
LINE
8
Image
10
3.915919
20
17.068841
11
3.815783
21
16.441931
0
LINE
8
Image
10
3.815783
20
16.441931
11
3.399792
21
15.935078
0
LINE
8
Image
10
3.399792
20
15.935078
11
2.348169
21
15.148921
0
LINE
8
Image
10
2.348169
20
15.148921
11
1.934111
21
14.648124
0
LINE
8
Image
10
1.934111
20
14.648124
11
1.710064
21
14.040403
0
LINE
8
Image
10
1.710064
20
14.040403
11
1.674392
21
13.383185
0
LINE
8
Image
10
1.674392
20
13.383185
11
1.825460
21
12.733900
0
LINE
8
Image
10
1.825460
20
12.733900
11
2.195621
21
12.100818
0
LINE
8
Image
10
2.195621
20
12.100818
11
2.705864
21
11.694093
0
LINE
8
Image
10
2.705864
20
11.694093
11
3.335540
21
11.493531
0
LINE
8
Image
10
3.335540
20
11.493531
11
4.064000
21
11.478940
0
LINE
8
Image
10
4.064000
20
11.478940
11
5.459082
21
11.571034
0
LINE
8
Image
10
5.459082
20
11.571034
11
6.063566
21
11.353083
0
LINE
8
Image
10
6.063566
20
11.353083
11
6.492220
21
10.746698
0
LINE
8
Image
10
6.492220
20
10.746698
11
6.572475
21
10.189172
0
LINE
8
Image
10
6.572475
20
10.189172
11
6.444707
21
9.666778
0
LINE
8
Image
10
6.444707
20
9.666778
11
5.898529
21
8.672572
0
LINE
8
Image
10
5.898529
20
8.672572
11
5.646833
21
8.173354
0
LINE
8
Image
10
5.646833
20
8.173354
11
5.520542
21
7.654454
0
LINE
8
Image
10
5.520542
20
7.654454
11
5.603012
21
7.102170
0
LINE
8
Image
10
5.603012
20
7.102170
11
5.977601
21
6.502798
0
LINE
8
Image
10
5.977601
20
6.502798
11
6.683021
21
5.894102
0
LINE
8
Image
10
6.683021
20
5.894102
11
7.260536
21
5.702892
0
LINE
8
Image
10
7.260536
20
5.702892
11
7.825370
21
5.752905
0
LINE
8
Image
10
7.825370
20
5.752905
11
8.920282
21
6.241450
0
LINE
8
Image
10
8.920282
20
6.241450
11
9.974336
21
6.689439
0
LINE
8
Image
10
9.974336
20
6.689439
11
10.488098
21
6.688758
0
LINE
8
Image
10
10.488098
20
6.688758
11
10.994111
21
6.426576
0
LINE
8
Image
10
10.994111
20
6.426576
11
11.360586
21
5.965257
0
LINE
8
Image
10
11.360586
20
5.965257
11
11.500865
21
5.444083
0
LINE
8
Image
10
11.500865
20
5.444083
11
11.431377
21
4.303026
0
LINE
8
Image
10
11.431377
20
4.303026
11
11.442728
21
3.165119
0
LINE
8
Image
10
11.442728
20
3.165119
11
11.684057
21
2.647883
0
LINE
8
Image
10
11.684057
20
2.647883
11
12.192001
21
2.192076
0
LINE
8
Image
10
12.192001
20
2.192076
11
13.004800
21
1.840585
0
LINE
8
Image
10
13.004800
20
1.840585
11
13.738709
21
1.809563
0
LINE
8
Image
10
13.738709
20
1.809563
11
14.350149
21
2.017099
0
LINE
8
Image
10
14.350149
20
2.017099
11
14.873995
21
2.421332
0
LINE
8
Image
10
14.873995
20
2.421332
11
15.345120
21
2.980405
0
LINE
8
Image
10
15.345120
20
2.980405
11
16.029452
21
3.774747
0
LINE
8
Image
10
16.029452
20
3.774747
11
16.477326
21
4.053870
0
LINE
8
Image
10
16.477326
20
4.053870
11
16.978490
21
4.090415
0
LINE
8
Image
10
16.978490
20
4.090415
11
17.399438
21
3.915795
0
LINE
8
Image
10
17.399438
20
3.915795
11
17.706291
21
3.641789
0
LINE
8
Image
10
17.706291
20
3.641789
11
18.083751
21
2.892664
0
LINE
8
Image
10
18.083751
20
2.892664
11
18.322951
21
2.037129
0
LINE
8
Image
10
18.322951
20
2.037129
11
18.635970
21
1.269275
0
LINE
8
Image
10
18.635970
20
1.269275
11
19.138268
21
0.832045
0
LINE
8
Image
10
19.138268
20
0.832045
11
19.778130
21
0.606482
0
LINE
8
Image
10
19.778130
20
0.606482
11
20.590929
21
0.565390
0
LINE
8
Image
10
20.590929
20
0.565390
11
21.232755
21
0.801854
0
LINE
8
Image
10
21.232755
20
0.801854
11
21.666550
21
1.212210
0
LINE
8
Image
10
21.666550
20
1.212210
11
22.172229
21
2.323003
0
LINE
8
Image
10
22.172229
20
2.323003
11
22.632323
21
3.434574
0
LINE
8
Image
10
22.632323
20
3.434574
11
23.009137
21
3.845904
0
LINE
8
Image
10
23.009137
20
3.845904
11
23.571189
21
4.083730
0
LINE
8
Image
10
23.571189
20
4.083730
11
24.149355
21
3.995694
0
LINE
8
Image
10
24.149355
20
3.995694
11
24.650204
21
3.606821
0
LINE
8
Image
10
24.650204
20
3.606821
11
25.418589
21
2.619070
0
LINE
8
Image
10
25.418589
20
2.619070
11
25.983798
21
2.095707
0
LINE
8
Image
10
25.983798
20
2.095707
11
26.634943
21
1.831500
0
LINE
8
Image
10
26.634943
20
1.831500
11
27.344949
21
1.819719
0
LINE
8
Image
10
27.344949
20
1.819719
11
28.086739
21
2.053633
0
LINE
8
Image
10
28.086739
20
2.053633
11
28.697631
21
2.482470
0
LINE
8
Image
10
28.697631
20
2.482470
11
29.000717
21
2.997987
0
LINE
8
Image
10
29.000717
20
2.997987
11
29.088609
21
3.573996
0
LINE
8
Image
10
29.088609
20
3.573996
11
29.053915
21
4.184309
0
LINE
8
Image
10
29.053915
20
4.184309
11
28.987207
21
5.403090
0
LINE
8
Image
10
28.987207
20
5.403090
11
29.140412
21
5.959182
0
LINE
8
Image
10
29.140412
20
5.959182
11
29.541469
21
6.444823
0
LINE
8
Image
10
29.541469
20
6.444823
11
30.190288
21
6.700967
0
LINE
8
Image
10
30.190288
20
6.700967
11
30.828347
21
6.562420
0
LINE
8
Image
10
30.828347
20
6.562420
11
32.060429
21
5.887875
0
LINE
8
Image
10
32.060429
20
5.887875
11
32.729919
21
5.691658
0
LINE
8
Image
10
32.729919
20
5.691658
11
33.350183
21
5.727731
0
LINE
8
Image
10
33.350183
20
5.727731
11
33.924760
21
5.981601
0
LINE
8
Image
10
33.924760
20
5.981601
11
34.457189
21
6.438772
0
LINE
8
Image
10
34.457189
20
6.438772
11
34.846787
21
7.037492
0
LINE
8
Image
10
34.846787
20
7.037492
11
34.964545
21
7.660070
0
LINE
8
Image
10
34.964545
20
7.660070
11
34.854635
21
8.297517
0
LINE
8
Image
10
34.854635
20
8.297517
11
34.561227
21
8.940842
0
LINE
8
Image
10
34.561227
20
8.940842
11
34.036881
21
9.897757
0
LINE
8
Image
10
34.036881
20
9.897757
11
33.934000
21
10.405813
0
LINE
8
Image
10
33.934000
20
10.405813
11
34.080411
21
10.926332
0
LINE
8
Image
10
34.080411
20
10.926332
11
34.518089
21
11.404918
0
LINE
8
Image
10
34.518089
20
11.404918
11
35.054281
21
11.611756
0
LINE
8
Image
10
35.054281
20
11.611756
11
36.293732
21
11.589970
0
LINE
8
Image
10
36.293732
20
11.589970
11
37.541818
21
11.620525
0
LINE
8
Image
10
37.541818
20
11.620525
11
38.088803
21
11.892790
0
LINE
8
Image
10
38.088803
20
11.892790
11
38.541591
21
12.462972
0
LINE
8
Image
10
38.541591
20
12.462972
11
38.802924
21
13.186345
0
LINE
8
Image
10
38.802924
20
13.186345
11
38.826692
21
13.901141
0
LINE
8
Image
10
38.826692
20
13.901141
11
38.600303
21
14.568337
0
LINE
8
Image
10
38.600303
20
14.568337
11
38.111169
21
15.148912
0
LINE
8
Image
10
38.111169
20
15.148912
11
37.109958
21
15.914705
0
LINE
8
Image
10
37.109958
20
15.914705
11
36.696264
21
16.397524
0
LINE
8
Image
10
36.696264
20
16.397524
11
36.545089
21
16.978523
0
LINE
8
Image
10
36.545089
20
16.978523
11
36.720335
21
17.480059
0
LINE
8
Image
10
36.720335
20
17.480059
11
37.115425
21
17.866008
0
LINE
8
Image
10
37.115425
20
17.866008
11
38.111259
21
18.324613
0
LINE
8
Image
10
38.111259
20
18.324613
11
38.938469
21
18.637127
0
LINE
8
Image
10
38.938469
20
18.637127
11
39.614058
21
19.099425
0
LINE
8
Image
10
39.614058
20
19.099425
11
40.029110
21
19.763485
0
LINE
8
Image
10
40.029110
20
19.763485
11
40.074709
21
20.681283
0
LINE
8
Image
10
40.074709
20
20.681283
11
39.898330
21
21.276265
0
LINE
8
Image
10
39.898330
20
21.276265
11
39.607443
21
21.715316
0
LINE
8
Image
10
39.607443
20
21.715316
11
38.762039
21
22.220060
0
LINE
8
Image
10
38.762039
20
22.220060
11
37.698292
21
22.384395
0
LINE
8
Image
10
37.698292
20
22.384395
11
36.576000
21
22.397200
0
LINE
8
Image
10
36.576000
20
22.397200
11
28.628600
21
22.397200
0
LINE
8
Image
10
28.628600
20
22.397200
11
26.494200
21
22.445968
0
LINE
8
Image
10
26.494200
20
22.445968
11
25.415057
21
22.411450
0
LINE
8
Image
10
25.415057
20
22.411450
11
24.383980
21
22.252793
0
LINE
8
Image
10
24.383980
20
22.252793
11
23.907444
21
22.058801
0
LINE
8
Image
10
23.907444
20
22.058801
11
23.513777
21
21.746561
0
LINE
8
Image
10
23.513777
20
21.746561
11
23.018332
21
20.882063
0
LINE
8
Image
10
23.018332
20
20.882063
11
22.984201
21
19.888752
0
LINE
8
Image
10
22.984201
20
19.888752
11
23.167176
21
19.415496
0
LINE
8
Image
10
23.167176
20
19.415496
11
23.497938
21
18.996083
0
LINE
8
Image
10
23.497938
20
18.996083
11
23.930998
21
18.702756
0
LINE
8
Image
10
23.930998
20
18.702756
11
24.421687
21
18.537787
0
LINE
8
Image
10
24.421687
20
18.537787
11
25.493305
21
18.410968
0
LINE
8
Image
10
25.493305
20
18.410968
11
26.547498
21
18.251723
0
LINE
8
Image
10
26.547498
20
18.251723
11
27.016404
21
18.046219
0
LINE
8
Image
10
27.016404
20
18.046219
11
27.418968
21
17.696143
0
LINE
8
Image
10
27.418968
20
17.696143
11
27.709016
21
17.071480
0
LINE
8
Image
10
27.709016
20
17.071480
11
27.678161
21
16.406151
0
LINE
8
Image
10
27.678161
20
16.406151
11
27.431643
21
15.754861
0
LINE
8
Image
10
27.431643
20
15.754861
11
27.074702
21
15.172313
0
LINE
8
Image
10
27.074702
20
15.172313
11
26.111588
21
14.073001
0
LINE
8
Image
10
26.111588
20
14.073001
11
24.932400
21
13.140989
0
LINE
8
Image
10
24.932400
20
13.140989
11
23.609813
21
12.422111
0
LINE
8
Image
10
23.609813
20
12.422111
11
22.216500
21
11.962200
0
LINE
8
Image
10
22.216500
20
11.962200
11
20.110165
21
11.764447
0
LINE
8
Image
10
20.110165
20
11.764447
11
18.074061
21
12.080670
0
LINE
8
Image
10
18.074061
20
12.080670
11
16.185630
21
12.850730
0
LINE
8
Image
10
16.185630
20
12.850730
11
14.522312
21
14.014487
0
LINE
8
Image
10
14.522312
20
14.014487
11
13.161550
21
15.511803
0
LINE
8
Image
10
13.161550
20
15.511803
11
12.180783
21
17.282536
0
LINE
8
Image
10
12.180783
20
17.282536
11
11.657453
21
19.266548
0
LINE
8
Image
10
11.657453
20
19.266548
11
11.669000
21
21.403700
0
LINE
8
Image
10
11.669000
20
21.403700
11
12.169680
21
23.341198
0
LINE
8
Image
10
12.169680
20
23.341198
11
13.067706
21
25.074459
0
LINE
8
Image
10
13.067706
20
25.074459
11
14.300579
21
26.555135
0
LINE
8
Image
10
14.300579
20
26.555135
11
15.805800
21
27.734875
0
LINE
8
Image
10
15.805800
20
27.734875
11
17.520871
21
28.565331
0
LINE
8
Image
10
17.520871
20
28.565331
11
19.383294
21
28.998153
0
LINE
8
Image
10
19.383294
20
28.998153
11
21.330570
21
28.984993
0
LINE
8
Image
10
21.330570
20
28.984993
11
23.300200
21
28.477500
0
LINE
8
Image
10
23.300200
20
28.477500
11
24.554194
21
27.792414
0
LINE
8
Image
10
24.554194
20
27.792414
11
25.652341
21
26.926158
0
LINE
8
Image
10
25.652341
20
26.926158
11
26.725883
21
26.039278
0
LINE
8
Image
10
26.725883
20
26.039278
11
27.906060
21
25.292320
0
LINE
8
Image
10
27.906060
20
25.292320
11
29.055854
21
24.967731
0
LINE
8
Image
10
29.055854
20
24.967731
11
30.254150
21
24.925928
0
LINE
8
Image
10
30.254150
20
24.925928
11
33.428381
21
24.881732
0
LINE
8
Image
10
33.428381
20
24.881732
11
35.015402
21
24.924823
0
LINE
8
Image
10
35.015402
20
24.924823
11
36.575920
21
25.098783
0
LINE
8
Image
10
36.575920
20
25.098783
11
37.878589
21
25.553036
0
LINE
8
Image
10
37.878589
20
25.553036
11
38.431210
21
25.979615
0
LINE
8
Image
10
38.431210
20
25.979615
11
38.774720
21
26.551523
0
LINE
8
Image
10
38.774720
20
26.551523
11
38.814728
21
27.544944
0
LINE
8
Image
10
38.814728
20
27.544944
11
38.501258
21
28.357743
0
LINE
8
Image
10
38.501258
20
28.357743
11
38.025369
21
28.899418
0
LINE
8
Image
10
38.025369
20
28.899418
11
37.449948
21
29.157402
0
LINE
8
Image
10
37.449948
20
29.157402
11
36.150609
21
29.196291
0
LINE
8
Image
10
36.150609
20
29.196291
11
34.903442
21
29.222396
0
LINE
8
Image
10
34.903442
20
29.222396
11
34.393235
21
29.464400
0
LINE
8
Image
10
34.393235
20
29.464400
11
34.008648
21
29.983703
0
LINE
8
Image
10
34.008648
20
29.983703
11
33.893529
21
30.529128
0
LINE
8
Image
10
33.893529
20
30.529128
11
33.997878
21
31.047178
0
LINE
8
Image
10
33.997878
20
31.047178
11
34.531075
21
32.047388
0
LINE
8
Image
10
34.531075
20
32.047388
11
34.940421
21
33.076803
0
LINE
8
Image
10
34.940421
20
33.076803
11
34.889958
21
33.631360
0
LINE
8
Image
10
34.889958
20
33.631360
11
34.558100
21
34.227893
0
LINE
8
Image
10
34.558100
20
34.227893
11
34.027596
21
34.747024
0
LINE
8
Image
10
34.027596
20
34.747024
11
33.427091
21
35.059788
0
LINE
8
Image
10
33.427091
20
35.059788
11
32.767657
21
35.131390
0
LINE
8
Image
10
32.767657
20
35.131390
11
32.060370
21
34.927036
0
LINE
8
Image
10
32.060370
20
34.927036
11
30.747237
21
34.215811
0
LINE
8
Image
10
30.747237
20
34.215811
11
30.058155
21
34.099095
0
LINE
8
Image
10
30.058155
20
34.099095
11
29.408570
21
34.446076
0
LINE
8
Image
10
29.408570
20
34.446076
11
29.085699
21
34.955059
0
LINE
8
Image
10
29.085699
20
34.955059
11
28.973614
21
35.500977
0
LINE
8
Image
10
28.973614
20
35.500977
11
29.056759
21
36.641447
0
LINE
8
Image
10
29.056759
20
36.641447
11
29.007917
21
37.743137
0
LINE
8
Image
10
29.007917
20
37.743137
11
28.730848
21
38.240581
0
LINE
8
Image
10
28.730848
20
38.240581
11
28.177000
21
38.681700
0
LINE
8
Image
10
28.177000
20
38.681700
11
27.454600
21
38.915600
0
LINE
8
Image
10
27.454600
20
38.915600
11
26.430438
21
38.891063
0
LINE
8
Image
10
26.430438
20
38.891063
11
25.981736
21
38.719948
0
LINE
8
Image
10
25.981736
20
38.719948
11
25.569700
21
38.381800
0
LINE
8
Image
10
25.569700
20
38.381800
11
24.745575
21
37.281300
0
LINE
8
Image
10
24.745575
20
37.281300
11
24.222738
21
36.834812
0
LINE
8
Image
10
24.222738
20
36.834812
11
23.571200
21
36.724100
0
LINE
8
Image
10
23.571200
20
36.724100
11
22.879123
21
37.091620
0
LINE
8
Image
10
22.879123
20
37.091620
11
22.487938
21
37.766013
0
LINE
8
Image
10
22.487938
20
37.766013
11
21.998600
21
39.285300
0
LINE
8
Image
10
21.998600
20
39.285300
11
21.416550
21
39.928175
0
LINE
8
Image
10
21.416550
20
39.928175
11
20.590900
21
40.237600
0
LINE
8
Image
10
20.590900
20
40.237600
11
19.778100
21
40.214200
0
LINE
8
Image
10
19.778100
20
40.214200
11
19.778100
21
40.214200
 0 
ENDSEC
 0 
EOF